# xmcd
# 
# Track frame offsets:
#     150
#     6535
#     24665
#     45240
#     62022
#     82030
#     101875
#     121947
#     144592
#     161435
#     180707
#     198757
#     217875
#     239790
#     260165
#     280225
#     295790
#     317840
#     339562
# 
# Disc length: 4789
# 
# Revision: 1
# Processed by: cddbd v1.5.2PL0 Copyright (c) Steve Scherf et al.
# Submitted via: BonkEnc v1.0.8
# 
DISCID=1e12b313
DTITLE=Various Artist - 美少女戦士セーラームーン全曲集
DYEAR=2004
DGENRE=Anime
TTITLE0=キラリ☆セーラードリーム! (オリジナルTVサイズ)
TTITLE1=C'est la vie 〜私のなかの恋する部分
TTITLE2=肩越しに金星
TTITLE3=オーバーレインボー(heart)ツアー
TTITLE4=桜・吹雪
TTITLE5=約束
TTITLE6=Here we go! -信じるチカラ-
TTITLE7=星降る夜明け
TTITLE8=Romance
TTITLE9=ラブリー・エール
TTITLE10=Change of pace
TTITLE11=Miracle Dance Night
TTITLE12=Mi Amor
TTITLE13=Sweet Little Resistance
TTITLE14=Friend
TTITLE15=Kiss!2 Bang!2
TTITLE16=さよなら〜sweet days
TTITLE17=I'm here
TTITLE18=Happy time, Happy life
EXTD=YEAR: 2004
EXTT0=
EXTT1=
EXTT2=
EXTT3=
EXTT4=
EXTT5=
EXTT6=
EXTT7=
EXTT8=
EXTT9=
EXTT10=
EXTT11=
EXTT12=
EXTT13=
EXTT14=
EXTT15=
EXTT16=
EXTT17=
EXTT18=
PLAYORDER=
